:FULLY-SPECIFIED
:FORCE-ALL-JOINTS-BE-3DOF
:DEGREES
577
root 7.1027 16.1188 -3.49971 -159.719 73.7825 -165.817
lfemur -19.3669 4.14599 -18.1495
ltibia 51.0006 0 0
lfoot -34.5909 5.01402 0
ltoes -1.67494 0 0
rfemur -47.0253 -9.12797 10.3761
rtibia 44.0346 0 0
rfoot 12.266 9.68115 0
rtoes -29.9002 0 0
lowerback 6.8078 -0.87576 -2.74093
upperback 2.73051 -1.12912 3.51067
thorax -0.859179 -0.544625 5.26088
lowerneck -4.56341 -13.731 -4.20148
upperneck 10.4612 -18.6831 5.83921
head 4.83799 -9.01099 1.27627
lclavicle 2.39275e-14 -1.95271e-14 0
lhumerus -37.9044 -17.187 93.6828
lradius 54.0719 0 0
lwrist 22.6132 0 0
lhand -21.4321 -4.53743 0
lfingers 7.12502 0 0
lthumb 4.95712 25.3806 0
rclavicle 2.39275e-14 -1.95271e-14 0
rhumerus 25.3322 17.0916 -74.5299
rradius 134.027 0 0
rwrist -44.0293 0 0
rhand -26.3671 -20.6749 0
rfingers 7.12502 0 0
rthumb 0.191256 -770.654 0
578
root 7.0175 16.1506 -3.48929 -157.413 75.1358 -163.439
lfemur -19.0826 4.32619 -18.2341
ltibia 50.251 0 0
lfoot -34.2702 5.87012 0
ltoes -1.24288 0 0
rfemur -47.0282 -9.55854 10.9126
rtibia 45.6932 0 0
rfoot 12.196 9.52511 0
rtoes -28.5889 0 0
lowerback 6.58644 -0.899143 -2.97687
upperback 2.65789 -1.18182 3.3848
thorax -0.802741 -0.575933 5.26266
lowerneck -4.67038 -13.6699 -4.15791
upperneck 10.6603 -18.6221 5.87987
head 4.91411 -8.9688 1.27167
lclavicle 2.22975e-14 -1.66063e-14 0
lhumerus -36.5727 -18.1856 92.7197
lradius 53.959 0 0
lwrist 22.8348 0 0
lhand -21.2374 -4.26796 0
lfingers 7.12502 0 0
lthumb 5.14509 25.6454 0
rclavicle 2.22975e-14 -1.66063e-14 0
rhumerus 25.3606 17.0373 -74.3437
rradius 134.022 0 0
rwrist -44.0469 0 0
rhand -26.284 -20.5008 0
rfingers 7.12502 0 0
rthumb 0.271462 -770.48 0
579
root 6.93151 16.1827 -3.47879 -155.087 76.5014 -161.039
lfemur -18.7956 4.50804 -18.3194
ltibia 49.4944 0 0
lfoot -33.9465 6.73405 0
ltoes -0.806869 0 0
rfemur -47.0312 -9.99305 11.4539
rtibia 47.367 0 0
rfoot 12.1252 9.36763 0
rtoes -27.2657 0 0
lowerback 6.36304 -0.922741 -3.21497
upperback 2.58462 -1.23501 3.25777
thorax -0.745785 -0.607528 5.26444
lowerneck -4.77834 -13.6083 -4.11394
upperneck 10.8611 -18.5605 5.92089
head 4.99094 -8.92623 1.26704
lclavicle 2.06525e-14 -1.36587e-14 0
lhumerus -35.2289 -19.1933 91.7476
lradius 53.845 0 0
lwrist 23.0586 0 0
lhand -21.0409 -3.99603 0
lfingers 7.12502 0 0
lthumb 5.33477 25.9126 0
rclavicle 2.06525e-14 -1.36587e-14 0
rhumerus 25.3891 16.9826 -74.1557
rradius 134.016 0 0
rwrist -44.0646 0 0
rhand -26.2002 -20.325 0
rfingers 7.12502 0 0
rthumb 0.352402 -770.304 0
580
root 6.84631 16.2145 -3.46837 -152.781 77.8547 -158.661
lfemur -18.5113 4.68824 -18.404
ltibia 48.7448 0 0
lfoot -33.6258 7.59014 0
ltoes -0.374814 0 0
rfemur -47.0341 -10.4236 11.9903
rtibia 49.0256 0 0
rfoot 12.0552 9.21159 0
rtoes -25.9544 0 0
lowerback 6.14168 -0.946124 -3.45091
upperback 2.512 -1.28771 3.1319
thorax -0.689347 -0.638836 5.26622
lowerneck -4.88531 -13.5472 -4.07037
upperneck 11.0601 -18.4995 5.96155
head 5.06706 -8.88404 1.26244
lclavicle 1.90225e-14 -1.07378e-14 0
lhumerus -33.8972 -20.1919 90.7845
lradius 53.7321 0 0
lwrist 23.2802 0 0
lhand -20.8462 -3.72656 0
lfingers 7.12502 0 0
lthumb 5.52274 26.1774 0
rclavicle 1.90225e-14 -1.07378e-14 0
rhumerus 25.4175 16.9283 -73.9695
rradius 134.011 0 0
rwrist -44.0822 0 0
rhand -26.1171 -20.1509 0
rfingers 7.12502 0 0
rthumb 0.432608 -770.13 0
581
root 6.76344 16.2455 -3.45825 -150.539 79.1708 -156.349
lfemur -18.2347 4.86348 -18.4863
ltibia 48.0157 0 0
lfoot -33.3139 8.42271 0
ltoes 0.0453671 0 0
rfemur -47.037 -10.8424 12.512
rtibia 50.6387 0 0
rfoot 11.987 9.05984 0
rtoes -24.6793 0 0
lowerback 5.9264 -0.968865 -3.68037
upperback 2.44138 -1.33896 3.00949
thorax -0.63446 -0.669283 5.26794
lowerneck -4.98935 -13.4878 -4.02799
upperneck 11.2537 -18.4402 6.00108
head 5.1411 -8.84301 1.25798
lclavicle 1.74373e-14 -7.89727e-15 0
lhumerus -32.6021 -21.163 89.8478
lradius 53.6222 0 0
lwrist 23.4958 0 0
lhand -20.6569 -3.4645 0
lfingers 7.12502 0 0
lthumb 5.70554 26.435 0
rclavicle 1.74373e-14 -7.89727e-15 0
rhumerus 25.445 16.8756 -73.7884
rradius 134.006 0 0
rwrist -44.0992 0 0
rhand -26.0364 -19.9815 0
rfingers 7.12502 0 0
rthumb 0.51061 -769.96 0
582
root 6.68448 16.275 -3.4486 -148.402 80.4249 -154.145
lfemur -17.9712 5.03047 -18.5647
ltibia 47.321 0 0
lfoot -33.0167 9.21607 0
ltoes 0.44576 0 0
rfemur -47.0397 -11.2414 13.0091
rtibia 52.1758 0 0
rfoot 11.9221 8.91523 0
rtoes -23.4641 0 0
lowerback 5.72126 -0.990535 -3.89903
upperback 2.37409 -1.3878 2.89284
thorax -0.582158 -0.698297 5.26958
lowerneck -5.08849 -13.4312 -3.98762
upperneck 11.4381 -18.3837 6.03876
head 5.21165 -8.80392 1.25372
lclavicle 1.59267e-14 -5.19048e-15 0
lhumerus -31.368 -22.0883 88.9552
lradius 53.5175 0 0
lwrist 23.7012 0 0
lhand -20.4765 -3.21478 0
lfingers 7.12502 0 0
lthumb 5.87973 26.6804 0
rclavicle 1.59267e-14 -5.19048e-15 0
rhumerus 25.4713 16.8253 -73.6158
rradius 134.001 0 0
rwrist -44.1155 0 0
rhand -25.9594 -19.8201 0
rfingers 7.12502 0 0
rthumb 0.584939 -769.799 0
583
root 6.61098 16.3024 -3.43962 -146.413 81.5922 -152.094
lfemur -17.7259 5.18591 -18.6376
ltibia 46.6743 0 0
lfoot -32.7401 9.95453 0
ltoes 0.818448 0 0
rfemur -47.0423 -11.6128 13.4719
rtibia 53.6065 0 0
rfoot 11.8617 8.78063 0
rtoes -22.333 0 0
lowerback 5.53031 -1.01071 -4.10255
upperback 2.31145 -1.43326 2.78426
thorax -0.533475 -0.725303 5.27111
lowerneck -5.18076 -13.3786 -3.95003
upperneck 11.6098 -18.3311 6.07383
head 5.27731 -8.76752 1.24976
lclavicle 1.45207e-14 -2.67098e-15 0
lhumerus -30.2193 -22.9497 88.1243
lradius 53.4201 0 0
lwrist 23.8924 0 0
lhand -20.3086 -2.98234 0
lfingers 7.12502 0 0
lthumb 6.04187 26.9088 0
rclavicle 1.45207e-14 -2.67098e-15 0
rhumerus 25.4957 16.7785 -73.4551
rradius 133.997 0 0
rwrist -44.1306 0 0
rhand -25.8878 -19.6699 0
rfingers 7.12502 0 0
rthumb 0.654124 -769.648 0
584
root 6.54451 16.3272 -3.43149 -144.614 82.648 -150.238
lfemur -17.5041 5.32649 -18.7036
ltibia 46.0895 0 0
lfoot -32.4899 10.6224 0
ltoes 1.15552 0 0
rfemur -47.0445 -11.9487 13.8904
rtibia 54.9005 0 0
rfoot 11.807 8.6589 0
rtoes -21.3101 0 0
lowerback 5.35761 -1.02895 -4.28662
upperback 2.2548 -1.47438 2.68606
thorax -0.489445 -0.749727 5.27249
lowerneck -5.26422 -13.3309 -3.91604
upperneck 11.765 -18.2836 6.10554
head 5.3367 -8.73461 1.24617
lclavicle 1.3249e-14 -3.92287e-16 0
lhumerus -29.1804 -23.7287 87.3729
lradius 53.332 0 0
lwrist 24.0654 0 0
lhand -20.1567 -2.77211 0
lfingers 7.12502 0 0
lthumb 6.18851 27.1154 0
rclavicle 1.3249e-14 -3.92287e-16 0
rhumerus 25.5178 16.7362 -73.3098
rradius 133.993 0 0
rwrist -44.1443 0 0
rhand -25.823 -19.534 0
rfingers 7.12502 0 0
rthumb 0.716697 -769.513 0
585
root 6.48662 16.3488 -3.42442 -143.048 83.5674 -148.623
lfemur -17.3109 5.44891 -18.7611
ltibia 45.5802 0 0
lfoot -32.272 11.204 0
ltoes 1.44905 0 0
rfemur -47.0465 -12.2412 14.2548
rtibia 56.0273 0 0
rfoot 11.7594 8.55288 0
rtoes -20.4193 0 0
lowerback 5.20722 -1.04483 -4.44692
upperback 2.20547 -1.51018 2.60054
thorax -0.451101 -0.770998 5.2737
lowerneck -5.3369 -13.2894 -3.88644
upperneck 11.9002 -18.2421 6.13316
head 5.38842 -8.70595 1.24305
lclavicle 1.21416e-14 1.5921e-15 0
lhumerus -28.2756 -24.4071 86.7185
lradius 53.2553 0 0
lwrist 24.216 0 0
lhand -20.0244 -2.58904 0
lfingers 7.12502 0 0
lthumb 6.31622 27.2953 0
rclavicle 1.21416e-14 1.5921e-15 0
rhumerus 25.537 16.6994 -73.1833
rradius 133.989 0 0
rwrist -44.1562 0 0
rhand -25.7666 -19.4157 0
rfingers 7.12502 0 0
rthumb 0.771188 -769.394 0
586
root 6.43888 16.3667 -3.41859 -141.756 84.3256 -147.29
lfemur -17.1516 5.54988 -18.8085
ltibia 45.1601 0 0
lfoot -32.0923 11.6837 0
ltoes 1.69113 0 0
rfemur -47.0482 -12.4825 14.5554
rtibia 56.9567 0 0
rfoot 11.7202 8.46545 0
rtoes -19.6846 0 0
lowerback 5.08318 -1.05794 -4.57912
upperback 2.16478 -1.53971 2.53001
thorax -0.419479 -0.78854 5.27469
lowerneck -5.39684 -13.2552 -3.86203
upperneck 12.0117 -18.208 6.15594
head 5.43108 -8.68231 1.24048
lclavicle 1.12283e-14 3.22866e-15 0
lhumerus -27.5295 -24.9666 86.1789
lradius 53.192 0 0
lwrist 24.3402 0 0
lhand -19.9154 -2.43806 0
lfingers 7.12502 0 0
lthumb 6.42153 27.4437 0
rclavicle 1.12283e-14 3.22866e-15 0
rhumerus 25.5529 16.669 -73.079
rradius 133.986 0 0
rwrist -44.1661 0 0
rhand -25.72 -19.3181 0
rfingers 7.12502 0 0
rthumb 0.816128 -769.296 0
587
root 6.40285 16.3801 -3.41418 -140.781 84.8979 -146.285
lfemur -17.0314 5.62608 -18.8442
ltibia 44.8431 0 0
lfoot -31.9567 12.0457 0
ltoes 1.87385 0 0
rfemur -47.0494 -12.6646 14.7822
rtibia 57.6581 0 0
rfoot 11.6905 8.39946 0
rtoes -19.13 0 0
lowerback 4.98957 -1.06782 -4.6789
upperback 2.13407 -1.562 2.47678
thorax -0.395611 -0.80178 5.27544
lowerneck -5.44208 -13.2294 -3.8436
upperneck 12.0959 -18.1822 6.17313
head 5.46327 -8.66447 1.23854
lclavicle 1.0539e-14 4.46388e-15 0
lhumerus -26.9663 -25.3889 85.7715
lradius 53.1442 0 0
lwrist 24.4339 0 0
lhand -19.833 -2.3241 0
lfingers 7.12502 0 0
lthumb 6.50102 27.5557 0
rclavicle 1.0539e-14 4.46388e-15 0
rhumerus 25.5649 16.646 -73.0002
rradius 133.984 0 0
rwrist -44.1735 0 0
rhand -25.6849 -19.2444 0
rfingers 7.12502 0 0
rthumb 0.850047 -769.223 0
588
root 6.38009 16.3886 -3.4114 -140.165 85.2595 -145.649
lfemur -16.9554 5.67423 -18.8668
ltibia 44.6428 0 0
lfoot -31.871 12.2745 0
ltoes 1.98928 0 0
rfemur -47.0502 -12.7796 14.9255
rtibia 58.1012 0 0
rfoot 11.6718 8.35777 0
rtoes -18.7797 0 0
lowerback 4.93043 -1.07407 -4.74194
upperback 2.11467 -1.57608 2.44315
thorax -0.380532 -0.810144 5.27591
lowerneck -5.47066 -13.2131 -3.83196
upperneck 12.1491 -18.1659 6.18399
head 5.48361 -8.6532 1.23731
lclavicle 1.01035e-14 5.24425e-15 0
lhumerus -26.6105 -25.6557 85.5142
lradius 53.114 0 0
lwrist 24.4932 0 0
lhand -19.781 -2.25211 0
lfingers 7.12502 0 0
lthumb 6.55124 27.6264 0
rclavicle 1.01035e-14 5.24425e-15 0
rhumerus 25.5725 16.6316 -72.9504
rradius 133.982 0 0
rwrist -44.1782 0 0
rhand -25.6627 -19.1979 0
rfingers 7.12502 0 0
rthumb 0.871476 -769.176 0
